<svg xmlns="http://www.w3.org/2000/svg" width="42" height="42" viewBox="0 0 42 42" fill="none">
  <path fill-rule="evenodd" clip-rule="evenodd" d="M33.9373 41.9995L20.9693 34.8102L7.98014 41.9565L10.4792 26.7737L-0.00195312 15.9994L14.5101 13.8052L21.0218 0L27.492 13.8265L41.9979 16.0688L31.4838 26.8081L33.9373 41.9995Z" fill="url(#paint0_linear_3_11384)"/>
  <path fill-rule="evenodd" clip-rule="evenodd" d="M14.51 13.8052L20.9978 20.9996L27.4919 13.8265L21.0217 0L14.51 13.8052Z" fill="url(#paint1_linear_3_11384)"/>
  <path fill-rule="evenodd" clip-rule="evenodd" d="M20.998 20.9992L31.484 26.8077L41.9982 16.0685L27.4922 13.8262L20.998 20.9992Z" fill="url(#paint2_linear_3_11384)"/>
  <path fill-rule="evenodd" clip-rule="evenodd" d="M20.9968 21L20.9683 34.8106L33.9363 41.9999L31.4828 26.8085L20.9968 21Z" fill="url(#paint3_linear_3_11384)"/>
  <path fill-rule="evenodd" clip-rule="evenodd" d="M20.9986 21L10.4799 26.7741L7.9809 41.9569L20.9701 34.8106L20.9986 21Z" fill="url(#paint4_linear_3_11384)"/>
  <path fill-rule="evenodd" clip-rule="evenodd" d="M10.4791 26.7742L-0.00201416 15.9999L14.51 13.8057L20.9978 21.0001L10.4791 26.7742Z" fill="url(#paint5_linear_3_11384)"/>
  <path fill-rule="evenodd" clip-rule="evenodd" d="M21.022 0L20.998 20.9996L27.4922 13.8265L21.022 0Z" fill="url(#paint6_linear_3_11384)"/>
  <path fill-rule="evenodd" clip-rule="evenodd" d="M20.998 21.0001L41.9982 16.0693L31.484 26.8086L20.998 21.0001Z" fill="url(#paint7_linear_3_11384)"/>
  <path fill-rule="evenodd" clip-rule="evenodd" d="M20.9968 21L33.9363 41.9999L20.9683 34.8106L20.9968 21Z" fill="url(#paint8_linear_3_11384)"/>
  <path fill-rule="evenodd" clip-rule="evenodd" d="M20.9986 21L7.9809 41.9569L10.4799 26.7741L20.9986 21Z" fill="url(#paint9_linear_3_11384)"/>
  <path fill-rule="evenodd" clip-rule="evenodd" d="M-0.00201416 15.9999L20.9978 21.0001L14.51 13.8057L-0.00201416 15.9999Z" fill="url(#paint10_linear_3_11384)"/>
  <path fill-rule="evenodd" clip-rule="evenodd" d="M30.6854 36.7171L20.9773 31.3349L11.2533 36.6849L13.1235 25.3187L5.27722 17.2525L16.1412 15.6098L21.0165 5.2749L25.8596 15.6257L36.7196 17.3048L28.8488 25.3445L30.6854 36.7171Z" fill="url(#paint11_linear_3_11384)"/>
  <defs>
    <linearGradient id="paint0_linear_3_11384" x1="-0.00195312" y1="20.9997" x2="41.9979" y2="20.9997" gradientUnits="userSpaceOnUse">
      <stop offset="0.0337" stop-color="#FACD39"/>
      <stop offset="0.2904" stop-color="#F9EB4F"/>
      <stop offset="0.3901" stop-color="#FAE44E"/>
      <stop offset="0.5169" stop-color="#F8E048"/>
      <stop offset="0.5787" stop-color="#F9D53F"/>
      <stop offset="0.64" stop-color="#F9D03C"/>
      <stop offset="0.7634" stop-color="#E9BA2D"/>
      <stop offset="0.8256" stop-color="#E4B429"/>
      <stop offset="0.9001" stop-color="#F0C231"/>
      <stop offset="1" stop-color="#BB8408"/>
    </linearGradient>
    <linearGradient id="paint1_linear_3_11384" x1="14.51" y1="10.4999" x2="27.4919" y2="10.4999" gradientUnits="userSpaceOnUse">
      <stop offset="0.3172" stop-color="#EFB21A"/>
      <stop offset="0.9731" stop-color="#F3F952"/>
    </linearGradient>
    <linearGradient id="paint2_linear_3_11384" x1="20.9979" y1="20.317" x2="41.9981" y2="20.317" gradientUnits="userSpaceOnUse">
      <stop offset="0.3172" stop-color="#EF9000"/>
      <stop offset="0.9731" stop-color="#F3F952"/>
    </linearGradient>
    <linearGradient id="paint3_linear_3_11384" x1="20.9684" y1="31.5" x2="33.9364" y2="31.5" gradientUnits="userSpaceOnUse">
      <stop offset="0.3172" stop-color="#EFB21A"/>
      <stop offset="0.9731" stop-color="#F3F952"/>
    </linearGradient>
    <linearGradient id="paint4_linear_3_11384" x1="7.98105" y1="31.4785" x2="20.9985" y2="31.4785" gradientUnits="userSpaceOnUse">
      <stop offset="0.3172" stop-color="#EF9000"/>
      <stop offset="0.9731" stop-color="#F3F952"/>
    </linearGradient>
    <linearGradient id="paint5_linear_3_11384" x1="-0.00201416" y1="20.2899" x2="20.9977" y2="20.2899" gradientUnits="userSpaceOnUse">
      <stop offset="0.3172" stop-color="#EF901A"/>
      <stop offset="0.3495" stop-color="#EF9500"/>
      <stop offset="0.9731" stop-color="#F3F952"/>
    </linearGradient>
    <linearGradient id="paint6_linear_3_11384" x1="21.2844" y1="5.35719" x2="24.3723" y2="16.7422" gradientUnits="userSpaceOnUse">
      <stop offset="0.3172" stop-color="#EF9000"/>
      <stop offset="0.9731" stop-color="#F3F952"/>
    </linearGradient>
    <linearGradient id="paint7_linear_3_11384" x1="37.4247" y1="21.2831" x2="25.8509" y2="23.6718" gradientUnits="userSpaceOnUse">
      <stop offset="0.3172" stop-color="#EFB21A"/>
      <stop offset="0.9731" stop-color="#F3F952"/>
    </linearGradient>
    <linearGradient id="paint8_linear_3_11384" x1="28.1118" y1="38.561" x2="20.1186" y2="27.7437" gradientUnits="userSpaceOnUse">
      <stop offset="0.3172" stop-color="#EFB21A"/>
      <stop offset="0.9731" stop-color="#F3F952"/>
    </linearGradient>
    <linearGradient id="paint9_linear_3_11384" x1="19.3676" y1="23.7122" x2="10.8101" y2="31.855" gradientUnits="userSpaceOnUse">
      <stop offset="0.3172" stop-color="#EF9000"/>
      <stop offset="0.9731" stop-color="#F3F952"/>
    </linearGradient>
    <linearGradient id="paint10_linear_3_11384" x1="26.5467" y1="21.2601" x2="6.74562" y2="15.3522" gradientUnits="userSpaceOnUse">
      <stop offset="0.3172" stop-color="#EFB21A"/>
      <stop offset="0.8489" stop-color="#F3F952"/>
    </linearGradient>
    <linearGradient id="paint11_linear_3_11384" x1="5.2771" y1="20.996" x2="36.7196" y2="20.996" gradientUnits="userSpaceOnUse">
      <stop offset="0.3172" stop-color="#EF9000"/>
      <stop offset="0.9731" stop-color="#F3F952"/>
    </linearGradient>
  </defs>
</svg>