<svg xmlns="http://www.w3.org/2000/svg" width="56" height="56" viewBox="0 0 56 56" fill="none">
  <path d="M47.1896 12.3606C48.0332 11.5114 48.7359 10.5679 49.2046 9.52992L48.4078 11.3228C48.1271 12.0306 47.8455 12.5497 47.5174 13.0212C46.8145 14.2478 45.8771 15.3802 44.7056 16.3707C44.4246 16.6066 43.9094 16.9841 43.1592 17.5502C42.3625 18.0691 41.8006 18.4938 41.4253 18.7769C40.8633 19.2959 40.488 19.7203 40.2538 20.145C40.0193 20.6168 40.0193 21.0415 40.2538 21.4662C41.8006 20.5226 43.2531 19.862 44.6122 19.579C44.1436 20.2867 43.3934 20.8999 42.3157 21.5604C41.7067 21.9379 40.7222 22.4098 39.5506 22.9757C40.8631 22.7397 42.2218 22.1738 43.6279 21.2302L42.8311 22.504C42.4563 23.0702 42.1282 23.4947 41.7534 23.7778C42.6441 23.4475 43.8155 23.1646 45.1742 22.9286L48.5956 22.4096C49.9077 22.1738 51.0321 21.9379 51.9228 21.5602C53.0476 21.1357 54.0783 20.5698 54.9221 19.8148L53.4691 21.1357L51.9694 22.3622C50.8448 23.1644 49.5329 23.7777 48.0333 24.2494L46.1588 24.6739C45.2215 24.8156 44.5185 24.957 44.0966 25.0986C43.347 25.2875 42.7847 25.5233 42.4564 25.8062C42.0349 26.1837 41.8473 26.561 41.9412 27.0801C43.722 26.7971 45.3154 26.7971 46.6273 27.0801C45.9244 27.552 44.9873 27.8351 43.7685 27.9765L40.6291 28.1182C41.9877 28.4483 43.4407 28.4955 45.0811 28.1652L43.8624 29.0618C43.3 29.3919 42.7847 29.6277 42.316 29.7694C43.3 29.8164 44.4716 30.0522 45.784 30.3827L49.1578 31.3261C50.4703 31.6564 51.5947 31.8923 52.532 31.9394C53.7507 32.0337 54.8751 31.8923 56 31.562L54.0784 32.1753C53.4226 32.3642 52.8134 32.5528 52.2511 32.647C50.892 32.9299 49.4393 32.9773 47.8929 32.7414L46.0185 32.364C45.0812 32.1751 44.3783 31.9865 43.9098 31.9394C43.1595 31.8451 42.5972 31.8451 42.1285 31.9394C41.6134 32.0811 41.2851 32.364 41.1912 32.8359C42.9253 33.3546 44.3783 34.0154 45.456 34.8172C44.6594 34.9116 43.6754 34.8172 42.5038 34.4399C41.7538 34.2512 40.8166 33.8737 39.5984 33.3078C40.6294 34.1568 41.988 34.7701 43.6284 35.1947L42.1285 35.4307C41.4726 35.5721 40.9103 35.5721 40.4418 35.4775C41.3322 35.9494 42.3161 36.61 43.3939 37.4592L46.0652 39.7235C47.0964 40.573 48.0336 41.1861 48.877 41.658C49.9547 42.2243 51.0796 42.5544 52.2039 42.696C50.3294 42.5072 49.0646 42.3657 48.3616 42.1771C47.0025 41.894 45.6432 41.3279 44.331 40.4787C44.0029 40.2899 43.4878 39.9596 42.7378 39.3935L41.0506 38.1197C40.3947 37.7423 39.8324 37.4592 39.4106 37.412C38.8953 37.3178 38.4733 37.4592 38.1452 37.8365C39.5511 39.016 40.5822 40.1954 41.2851 41.3749C40.4883 41.139 39.645 40.6204 38.7077 39.8181C38.1452 39.3462 37.3956 38.5914 36.5051 37.6006C37.1613 38.7801 38.0985 39.9124 39.4576 40.9502L38.0046 40.6202C37.3487 40.4313 36.833 40.1954 36.4584 39.9595C37.0675 40.7143 37.6765 41.7524 38.2862 42.9789L39.8326 46.0924C40.4418 47.319 41.0508 48.2625 41.6134 49.0175C42.41 50.0083 43.2534 50.7633 44.2374 51.3292C42.6444 50.4328 41.5195 49.7723 40.957 49.3006C39.8326 48.4513 38.8016 47.4135 37.9109 46.0924C37.7237 45.8095 37.3958 45.2434 36.9736 44.4412C36.5051 43.5922 36.1304 42.9789 35.8959 42.6014C35.4745 41.9408 35.0524 41.5163 34.6777 41.2805C34.2557 40.9501 33.787 40.903 33.3656 41.1388C34.162 42.79 34.6777 44.2998 34.7715 45.6679C34.162 45.1489 33.6 44.2998 33.0843 43.2148C32.756 42.5072 32.3813 41.5163 31.9597 40.2424C32.0531 41.6107 32.5216 43.0259 33.2719 44.5358L32.1004 43.5922C31.5845 43.1677 31.2097 42.79 30.9755 42.3655C31.2097 43.3562 31.3502 44.5358 31.4441 45.9038L31.5845 49.395C31.6317 50.7633 31.8191 51.8956 32.0532 52.792C32.3348 53.9713 32.8501 55.0564 33.4591 56L32.3346 54.3961C31.9126 53.7829 31.5378 53.2638 31.3035 52.7921C30.6006 51.5182 30.132 50.1501 29.8509 48.6405C29.757 48.2628 29.71 47.6497 29.6167 46.7062C29.5228 45.7154 29.4757 45.0078 29.3825 44.5831C29.2415 43.8283 29.0544 43.262 28.8199 42.8847C28.5385 42.4128 28.1637 42.1771 27.6485 42.2243C27.7422 44.0642 27.5546 45.6209 27.1327 46.9421C26.8049 46.1871 26.6173 45.1964 26.5707 43.9697C26.5707 43.2152 26.6173 42.1771 26.7581 40.8562C26.2894 42.1299 26.1022 43.5923 26.2428 45.2907L25.5399 43.9226C25.2118 43.3564 25.0242 42.8374 24.9774 42.3657C24.7898 43.3092 24.4622 44.4886 23.9936 45.7624L22.6811 49.0177C22.2125 50.2915 21.8849 51.3765 21.7438 52.3201C21.5566 53.5468 21.5566 54.6789 21.791 55.8112L21.369 53.8769C21.2284 53.1693 21.1346 52.556 21.0879 51.9898C20.9475 50.5745 21.0407 49.1122 21.416 47.6024C21.5094 47.2251 21.6971 46.6116 21.978 45.7624C22.3061 44.819 22.5406 44.1586 22.6344 43.7337C22.822 42.9791 22.8687 42.3657 22.822 41.941C22.7281 41.3747 22.4937 41.0448 22.0252 40.856C21.369 42.5542 20.5722 43.9225 19.6349 44.9603C19.6349 44.1111 19.8224 43.1675 20.291 42.0353C20.6192 41.3277 21.0878 40.3841 21.7436 39.2046C20.8064 40.1952 20.0568 41.4691 19.4943 43.0731L19.3538 41.5636C19.307 40.903 19.3538 40.337 19.4943 39.8652C18.979 40.7144 18.1821 41.6107 17.245 42.6016L14.7613 45.055C13.777 45.9985 13.0741 46.8476 12.5586 47.6497C11.9024 48.6405 11.4337 49.6783 11.1528 50.7636L11.5276 48.9235C11.7153 48.2158 11.8557 47.6026 12.0434 47.0835C12.4649 45.7626 13.168 44.4415 14.1521 43.2152C14.3866 42.9321 14.808 42.413 15.4171 41.7525L16.823 40.1955C17.2917 39.5823 17.6198 39.0634 17.7137 38.6387C17.8541 38.1197 17.7602 37.648 17.4326 37.3178C16.1202 38.5915 14.8553 39.5351 13.5898 40.054C13.9179 39.299 14.4799 38.4972 15.3706 37.6478C15.9329 37.1287 16.7764 36.4685 17.8076 35.6664C17.1514 35.9492 16.5422 36.2797 15.9796 36.7042C15.4173 37.1287 14.8081 37.6478 14.1991 38.2612L14.7144 36.8459C14.9487 36.2325 15.2301 35.7607 15.5112 35.3833C14.6678 35.9024 13.6367 36.4211 12.3247 36.9402L9.09111 38.1195C7.82607 38.6386 6.79506 39.1103 5.99841 39.6293C5.01443 40.2898 4.17043 41.0446 3.51455 41.8938L4.59243 40.3841C5.01427 39.8179 5.43579 39.3462 5.8106 38.9215C6.74787 37.8836 7.91933 36.9873 9.2786 36.2324C9.6067 36.0436 10.1693 35.8077 11.0125 35.4305C11.9029 35.0529 12.5589 34.7697 12.9339 34.581C13.6367 34.2038 14.1054 33.8734 14.3869 33.496C14.7616 33.0714 14.8555 32.6467 14.6678 32.175C12.9339 32.8356 11.3875 33.1657 10.0282 33.1185C10.5907 32.5525 11.4812 32.0808 12.6528 31.7031C13.3558 31.4203 14.3869 31.1372 15.6517 30.8541C14.9489 30.8541 14.2458 30.9012 13.59 31.0428C12.887 31.1845 12.1369 31.4203 11.2936 31.7504L12.3713 30.6655C12.84 30.1936 13.262 29.8161 13.6839 29.6275L10.1221 29.7219L6.70131 29.5333L3.28035 29.6275C2.0617 29.8163 0.983979 30.1938 0 30.7597L1.68689 29.7219C2.29606 29.3916 2.85851 29.1085 3.37425 28.8725C4.68649 28.3065 6.09231 27.9762 7.63858 27.8348C8.01339 27.8348 8.66959 27.8348 9.55982 27.8348C10.5441 27.882 11.2472 27.8348 11.6684 27.8348C12.4187 27.7876 13.0278 27.646 13.4025 27.4571C13.9182 27.2212 14.1524 26.8438 14.1993 26.3721C12.3713 26.2306 10.825 25.9003 9.6067 25.3342C10.3563 25.0512 11.3408 25.0041 12.5589 25.0983C13.3086 25.1455 14.3397 25.3342 15.6517 25.5701C14.4335 25.0041 12.9808 24.6737 11.2936 24.5795L12.6994 24.0135C13.3558 23.7775 13.8709 23.636 14.3396 23.636C13.4023 23.3528 12.2779 22.9283 11.0592 22.3149L8.01307 20.6637C6.79474 20.0506 5.76389 19.6261 4.82662 19.39C3.70172 19.0597 2.57712 18.9183 1.4994 19.0125L3.32675 18.8239L5.20128 18.7295C6.60726 18.7295 8.06026 19.0125 9.55951 19.5789C9.88761 19.6731 10.4501 19.909 11.2934 20.3337C12.137 20.7582 12.793 20.9942 13.215 21.1827C14.7614 21.749 15.6987 21.6546 16.1202 20.8524C14.48 20.0032 13.2619 19.0597 12.3244 18.0217C13.168 18.1163 14.1052 18.4466 15.1362 19.0125C15.839 19.39 16.6825 19.9562 17.7602 20.7582C16.9167 19.7201 15.6985 18.8239 14.199 18.0689L15.6985 18.1635C16.3544 18.1635 16.9167 18.2577 17.3854 18.4466C16.5886 17.7858 15.7923 16.9368 14.9484 15.8518L12.7456 13.1155C11.9018 12.0777 11.1056 11.2283 10.3554 10.6622C9.4181 9.86022 8.43412 9.29382 7.3564 8.91665L9.23094 9.52976C9.88682 9.76569 10.4957 10.0016 11.0114 10.2376C12.2769 10.851 13.4953 11.6528 14.6202 12.7381C14.9011 12.9741 15.3231 13.4458 15.9321 14.1534C16.5413 14.861 17.0098 15.3801 17.3381 15.7102C17.9004 16.2765 18.3689 16.6066 18.7904 16.7955C19.3062 16.9841 19.7277 16.9369 20.1024 16.6066C18.9781 15.1913 18.1813 13.8231 17.8065 12.5023C18.5094 12.8797 19.2123 13.5873 19.9619 14.5309C20.4306 15.1443 20.9931 16.0405 21.6491 17.2202C21.4616 16.5124 21.1806 15.8521 20.8525 15.2385C20.5244 14.6253 20.0556 13.9648 19.4934 13.3042L20.8525 13.9648C21.4148 14.2476 21.8836 14.5781 22.2112 14.9084C21.7897 14.0118 21.4148 12.9267 21.0396 11.5588L20.1495 8.16183C19.8215 6.88811 19.3996 5.80282 19.0246 4.95378C18.4622 3.82147 17.7593 2.92492 16.9629 2.12307L18.4155 3.44398C18.9306 3.91584 19.3995 4.38755 19.7746 4.81206C20.6647 5.89719 21.4146 7.12388 22.0239 8.58619C22.1644 8.91649 22.352 9.5296 22.6331 10.4263C22.914 11.3225 23.1482 12.0303 23.2893 12.4077C23.5704 13.1625 23.8985 13.6815 24.1794 13.9646C24.5542 14.3892 24.9762 14.4834 25.4447 14.3892C25.0229 12.5962 24.8824 11.0396 25.0229 9.67148C25.4916 10.3319 25.9134 11.2282 26.1478 12.4077C26.3354 13.2098 26.5226 14.2006 26.6632 15.5687C26.8509 14.2006 26.7102 12.7381 26.2417 11.0869L27.2255 12.2663C27.6475 12.7381 27.9284 13.257 28.069 13.6815C28.069 12.6908 28.1162 11.5113 28.3504 10.1432L28.9127 6.69921C29.1472 5.33096 29.2405 4.24615 29.1938 3.30242C29.1472 2.12307 28.8657 0.990757 28.4909 0L29.2405 1.65121C29.5219 2.31166 29.7562 2.92492 29.8969 3.44398C30.3189 4.76504 30.5059 6.2275 30.4592 7.83168C30.4592 8.16183 30.412 8.82212 30.2715 9.71882C30.1776 10.7094 30.0842 11.4171 30.0842 11.8417C30.0372 12.6436 30.0842 13.21 30.2715 13.6817C30.4592 14.1534 30.7873 14.4365 31.256 14.5309C31.5834 12.7381 32.0521 11.2283 32.7551 10.049C32.9427 10.8511 32.9427 11.8417 32.7085 13.0212C32.568 13.7759 32.2867 14.814 31.865 16.0879C32.568 14.9085 33.0833 13.4931 33.271 11.8419L33.7395 13.3044C33.88 13.9178 33.9739 14.4837 33.9268 14.9556C34.302 14.0592 34.8641 12.9742 35.614 11.8419L37.5353 8.91681C38.2382 7.7845 38.8006 6.79374 39.1287 5.89751C39.5975 4.71817 39.8318 3.58585 39.8318 2.45338V4.48224C39.8318 5.18988 39.7846 5.80298 39.7379 6.36922C39.5503 7.78449 39.1755 9.19977 38.4725 10.6152C38.3321 10.8982 38.0038 11.4642 37.5353 12.2664C37.0667 13.0683 36.6918 13.6817 36.5041 14.1064C36.1765 14.814 35.9888 15.3802 35.9421 15.8048C35.8949 16.3707 36.0826 16.7483 36.5041 17.0315C37.4886 15.5218 38.5663 14.3421 39.6912 13.5401C39.5036 14.3895 39.0817 15.2385 38.4258 16.2766C38.0038 16.8897 37.3009 17.6919 36.4574 18.7297C37.5351 17.9278 38.5661 16.8425 39.4567 15.3802L39.269 16.8897C39.1753 17.5502 38.9881 18.1164 38.7539 18.5409C39.4567 17.8333 40.3939 17.1257 41.5656 16.3707L44.5178 14.4837C45.596 13.7289 46.5333 13.0212 47.1896 12.3606Z" fill="url(#paint0_radial_3_9890)"/>
  <path d="M41.0834 28.402C41.0834 35.7464 35.1698 41.6992 27.8758 41.6992C20.5812 41.6992 14.668 35.7464 14.668 28.402C14.668 21.0589 20.5812 15.1055 27.8758 15.1055C35.1697 15.1056 41.0834 21.0589 41.0834 28.402Z" fill="url(#paint1_linear_3_9890)"/>
  <path d="M27.8759 15.6787C20.8954 15.6787 15.2363 21.3758 15.2363 28.4025C15.2363 35.4301 20.8954 41.1269 27.8759 41.1269C34.8559 41.1269 40.5149 35.4299 40.5149 28.4025C40.5149 21.3758 34.8559 15.6787 27.8759 15.6787Z" fill="url(#paint2_radial_3_9890)"/>
  <path d="M35.5843 37.6572C33.3915 39.3442 30.1324 40.1753 27.9798 40.0983C25.0125 40.0959 22.0359 39.072 19.7032 37.1351C19.1796 36.7004 18.4464 35.9787 17.9163 35.3013C17.3841 34.6264 17.0398 34.0256 17.0312 34.0313C17.0398 34.0256 17.3533 34.6426 17.8515 35.3504C18.3468 36.0594 19.0459 36.8324 19.5469 37.3136C21.7654 39.4546 24.8553 40.7216 27.9792 40.7228C30.2486 40.8104 33.6379 39.764 35.7764 37.9081C37.9749 36.1187 38.925 34.0174 38.9385 34.0477C38.9253 34.0176 37.8232 36.0405 35.5843 37.6572Z" fill="#FFCC00"/>
  <path d="M37.0568 25.887C35.9078 26.1472 34.3578 24.6466 33.3583 24.1238C31.7148 23.2645 29.889 22.7684 27.9682 22.7684C26.0476 22.7684 24.2215 23.2645 22.5787 24.1238C21.5786 24.6465 20.0283 26.1472 18.8803 25.887C17.265 25.5213 17.8944 22.6835 18.3565 21.6554C19.9208 18.1751 24.1571 16.3896 27.9684 16.3896C31.5469 16.3896 35.4564 17.9299 37.2541 21.0268C37.8687 22.0844 38.9146 25.4665 37.0568 25.887Z" fill="url(#paint3_linear_3_9890)"/>
  <defs>
    <radialGradient id="paint0_radial_3_9890" cx="0" cy="0" r="1" gradientUnits="userSpaceOnUse" gradientTransform="translate(27.9993 28.0001) scale(27.9067 28.0945)">
      <stop stop-color="#FFFF00"/>
      <stop offset="0.0642" stop-color="#FFF700"/>
      <stop offset="0.494" stop-color="#FFC400"/>
      <stop offset="0.8193" stop-color="#FFA500"/>
      <stop offset="1" stop-color="#FF9900"/>
    </radialGradient>
    <linearGradient id="paint1_linear_3_9890" x1="18.5363" y1="37.8046" x2="37.3402" y2="19.1264" gradientUnits="userSpaceOnUse">
      <stop stop-color="#FF7300"/>
      <stop offset="0.522" stop-color="#FFCC00"/>
      <stop offset="0.5304" stop-color="#FFCA00"/>
      <stop offset="0.8511" stop-color="#FF8200"/>
      <stop offset="1" stop-color="#FF6600"/>
    </linearGradient>
    <radialGradient id="paint2_radial_3_9890" cx="0" cy="0" r="1" gradientUnits="userSpaceOnUse" gradientTransform="translate(27.5291 35.3304) scale(22.3937 22.5444)">
      <stop stop-color="#FFFF00"/>
      <stop offset="0.0642" stop-color="#FFF700"/>
      <stop offset="0.494" stop-color="#FFC400"/>
      <stop offset="0.8193" stop-color="#FFA500"/>
      <stop offset="1" stop-color="#FF9900"/>
    </radialGradient>
    <linearGradient id="paint3_linear_3_9890" x1="27.9734" y1="25.917" x2="27.9734" y2="16.3896" gradientUnits="userSpaceOnUse">
      <stop stop-color="#FFCC00"/>
      <stop offset="1" stop-color="#FFFEBF"/>
    </linearGradient>
  </defs>
</svg>